<?xml version="1.0" encoding="UTF-8"?>
<!-- Created with Inkscape (http://www.inkscape.org/) -->
<svg width="297mm" height="210mm" inkscape:version="0.92.3 (2405546, 2018-03-11)" sodipodi:docname="nagelrolle.svg" version="1.1" viewBox="0 0 297 210" xmlns="http://www.w3.org/2000/svg" xmlns:cc="http://creativecommons.org/ns#" xmlns:dc="http://purl.org/dc/elements/1.1/" xmlns:inkscape="http://www.inkscape.org/namespaces/inkscape" xmlns:rdf="http://www.w3.org/1999/02/22-rdf-syntax-ns#" xmlns:sodipodi="http://sodipodi.sourceforge.net/DTD/sodipodi-0.dtd"><title>cuterly fork</title><sodipodi:namedview id="base" bordercolor="#666666" borderopacity="1.0" inkscape:current-layer="layer2" inkscape:cx="537.53694" inkscape:cy="390.70346" inkscape:document-units="mm" inkscape:pageopacity="0.0" inkscape:pageshadow="2" inkscape:window-height="996" inkscape:window-maximized="1" inkscape:window-width="1920" inkscape:window-x="-8" inkscape:window-y="-8" inkscape:zoom="0.73855479" pagecolor="#ffffff" showgrid="false"/><metadata><rdf:RDF><cc:Work rdf:about=""><dc:format>image/svg+xml</dc:format><dc:type rdf:resource="http://purl.org/dc/dcmitype/StillImage"/><dc:title>cuterly fork</dc:title></cc:Work></rdf:RDF></metadata><g fill="#fff" fill-rule="evenodd" stroke="#000" inkscape:groupmode="layer" inkscape:label="Ebene 2"><path d="m218.85 85.63c-9.5439-2.5513-23.907-8.6462-28.915-9.9219s-17.614-1.228-19.567-1.9682-7.8115-2.9608-11.717-4.4412c-3.2758-0.22049-4.6656 4.9964-4.6656 4.9964-0.32263 4.1341 0.3819 9.4899 3.5678 11.835l55.81-0.57873c1.6064-0.063 3.881 0.14128 5.4874 0.07828z" stroke-miterlimit="3.6667" stroke-width="1.0583" inkscape:connector-curvature="0" sodipodi:nodetypes="czzcccccc"/><path d="m166.03 103.39c-8.6036-12.73-19.462-22.362-28.904-33.787-2.407-2.9125-5.675-2.7369-9.5654-4.4653-3.8904-1.7285-5.2619-2.508-11.502-8.2714-6.2399-5.7634-39.59-31.942-38.878-33.828 0.71233-1.8864 30.7 17.523 43.945 32.48 1.5678 1.1936 3.4438-0.86376 2.0253-2.5967-7.5605-8.0567-43.875-32.627-42.722-34.606 1.1533-1.9785 31.176 17.82 44.837 31.276 1.2241 0.90614 2.7815-0.65377 1.5579-1.9975-13.316-13.613-44.367-33.542-43.477-34.873 0.89031-1.3307 30.139 15.864 45.482 30.655 1.8992 1.7799 3.2259 0.13908 1.9134-2.0414-2.0392-4.9622-45.094-31.69-43.553-33.686 1.5416-1.9962 36.484 18.058 47.533 30.848 2.4719 2.9468 3.7334 6.4261 4.1869 9.0481 0.17926 4.3697 0.15809 11.27 0.53779 13.109 0.3797 1.8392 1.8609 4.3654 2.437 5.1133 0.81436 1.057 26.469 27.23 26.469 27.23z" stroke-width="1.0583" inkscape:connector-curvature="0" sodipodi:nodetypes="cszzzcczcczcczcczscc"/><path d="m299.23 153.93s-48.638-52.217-63.748-61.48c-15.11-9.263-13.45-6.663-19.655-6.8036s-2.5161-0.37611-15.875-0.37798c-13.359-0.0019-64.495 0.70773-66.448 2.7236-1.9529 2.0159-8.8522 4.3799-9.5249 10.884-0.67279 6.5037 3.9793 15.971 8.3155 20.789s12.914 4.7247 15.497 5.6696c1.5806-2.5964 7.4335-9.8274 8.6934-12.095 1.2599-2.2678 5.0397-9.0714 7.5595-13.607-1.1864 2.3719-4.2916 8.1172-7.6404 13.581-4.9139 0.13075-9.9835-0.0789-14.612 0.33123 4.5698-0.40312 13.138-0.11914 14.713-0.15826-1.4178 2.3814-7.1415 9.5322-8.7131 11.948-10.767 16.421 2.4395 24.871 7.9375 26.458s6.2976 0.76419 9.4464 1.1463c0.12468-2.0199-0.0658-5.7805 0.72253-8.8328 0.61986-2.3999 3.0568-9.377 5.2242-12.682l-5.2786 12.762c0.0736 8.4367-2.5674 28.038 4.41 32.807 0 0-1.5662-5.0397 4.152-14.399-5.6921 9.5506-4.2517 12.831-4.152 14.399 0.0998 1.5676 4.655 8.8867 6.949 10.023 2.2941 1.1359 11.47 5.6795 13.764 6.8154 2.2941 1.1359 10.144-1.038 14.465 0.25384 4.3209 1.2918 17.369 5.3025 25.358 6.4279s14.675-2.7904 21.323-1.0953 15.096 9.8542 20.64 13.445l26.321-0.0783z" stroke-linecap="round" stroke-linejoin="round" stroke-miterlimit="3.6667" stroke-width="1.0583" inkscape:connector-curvature="0" sodipodi:nodetypes="czzzzzzczccccczcscccczzzzzzccc"/></g></svg>
